<svg width="167" height="59" viewBox="0 0 167 59" fill="none" xmlns="http://www.w3.org/2000/svg">
<g filter="url(#filter0_d_4_100)">
<rect x="4" width="159" height="51" rx="15" fill="#D9D9D9"/>
<path d="M22.076 31V20.0909H24.0522V25.1033H24.1854L28.4414 20.0909H30.8544L26.6357 24.9862L30.8917 31H28.516L25.2614 26.3232L24.0522 27.7507V31H22.076ZM35.1637 31.1598C34.3434 31.1598 33.6349 30.9893 33.0384 30.6484C32.4453 30.304 31.989 29.8175 31.6694 29.1889C31.3498 28.5568 31.19 27.8129 31.19 26.957C31.19 26.1154 31.3498 25.3768 31.6694 24.7411C31.9925 24.1019 32.4435 23.6048 33.0224 23.2496C33.6012 22.891 34.2812 22.7116 35.0625 22.7116C35.5668 22.7116 36.0426 22.7933 36.4901 22.9567C36.9411 23.1165 37.3388 23.3651 37.6832 23.7024C38.0313 24.0398 38.3047 24.4695 38.5036 24.9915C38.7024 25.5099 38.8018 26.1278 38.8018 26.8452V27.4364H32.0955V26.1367H36.9535C36.9499 25.7674 36.87 25.4389 36.7138 25.1513C36.5575 24.8601 36.3391 24.631 36.0586 24.4641C35.7816 24.2972 35.4585 24.2138 35.0891 24.2138C34.695 24.2138 34.3487 24.3097 34.0504 24.5014C33.7521 24.6896 33.5195 24.9382 33.3526 25.2472C33.1893 25.5526 33.1058 25.8881 33.1023 26.2539V27.3885C33.1023 27.8643 33.1893 28.2727 33.3633 28.6136C33.5373 28.951 33.7805 29.2102 34.093 29.3913C34.4055 29.5689 34.7713 29.6577 35.1903 29.6577C35.4709 29.6577 35.7248 29.6186 35.9521 29.5405C36.1793 29.4588 36.3764 29.3398 36.5433 29.1836C36.7102 29.0273 36.8363 28.8338 36.9215 28.603L38.7219 28.8054C38.6083 29.2812 38.3917 29.6967 38.0721 30.0518C37.756 30.4034 37.3512 30.6768 36.8576 30.8722C36.364 31.0639 35.7994 31.1598 35.1637 31.1598ZM40.4331 31V22.8182H42.2762V24.2085H42.3721C42.5425 23.7397 42.8248 23.3739 43.219 23.1112C43.6132 22.8448 44.0837 22.7116 44.6306 22.7116C45.1846 22.7116 45.6515 22.8466 46.0315 23.1165C46.415 23.3828 46.6849 23.7468 46.8412 24.2085H46.9264C47.1075 23.7539 47.4129 23.3917 47.8426 23.1218C48.2758 22.8484 48.789 22.7116 49.382 22.7116C50.1349 22.7116 50.7492 22.9496 51.2251 23.4254C51.7009 23.9013 51.9388 24.5955 51.9388 25.5082V31H50.0052V25.8065C50.0052 25.2987 49.8703 24.9276 49.6004 24.6932C49.3305 24.4553 49.0003 24.3363 48.6096 24.3363C48.1444 24.3363 47.7805 24.4819 47.5177 24.7731C47.2584 25.0607 47.1288 25.4354 47.1288 25.897V31H45.2378V25.7266C45.2378 25.304 45.11 24.9666 44.8543 24.7145C44.6022 24.4624 44.2719 24.3363 43.8635 24.3363C43.5866 24.3363 43.3344 24.4073 43.1072 24.5494C42.8799 24.6879 42.6988 24.8849 42.5638 25.1406C42.4289 25.3928 42.3614 25.6875 42.3614 26.0249V31H40.4331ZM53.9803 31V20.0909H55.9086V24.1712H55.9885C56.0879 23.9723 56.2282 23.761 56.4093 23.5373C56.5904 23.31 56.8354 23.1165 57.1444 22.9567C57.4533 22.7933 57.8475 22.7116 58.3269 22.7116C58.959 22.7116 59.5289 22.8732 60.0368 23.1964C60.5481 23.516 60.9529 23.9901 61.2512 24.6186C61.5531 25.2436 61.704 26.0107 61.704 26.9197C61.704 27.8182 61.5566 28.5817 61.2619 29.2102C60.9672 29.8388 60.5659 30.3182 60.0581 30.6484C59.5502 30.9787 58.975 31.1438 58.3322 31.1438C57.8635 31.1438 57.4746 31.0657 57.1657 30.9094C56.8567 30.7532 56.6081 30.565 56.4199 30.3448C56.2353 30.1211 56.0914 29.9098 55.9885 29.7109H55.8766V31H53.9803ZM55.8713 26.9091C55.8713 27.4382 55.9458 27.9016 56.095 28.2994C56.2477 28.6971 56.4661 29.0078 56.7502 29.2315C57.0378 29.4517 57.3858 29.5618 57.7942 29.5618C58.2203 29.5618 58.5772 29.4482 58.8649 29.2209C59.1525 28.9901 59.3691 28.6758 59.5147 28.2781C59.6639 27.8768 59.7385 27.4205 59.7385 26.9091C59.7385 26.4013 59.6657 25.9503 59.5201 25.5561C59.3745 25.1619 59.1578 24.853 58.8702 24.6293C58.5826 24.4055 58.2239 24.2937 57.7942 24.2937C57.3823 24.2937 57.0325 24.402 56.7449 24.6186C56.4572 24.8352 56.2388 25.1388 56.0897 25.5295C55.9441 25.9201 55.8713 26.38 55.8713 26.9091ZM65.6977 31.1651C65.1792 31.1651 64.7123 31.0728 64.2968 30.8881C63.8849 30.6999 63.5581 30.4229 63.3167 30.0572C63.0787 29.6914 62.9598 29.2404 62.9598 28.7042C62.9598 28.2425 63.045 27.8608 63.2155 27.5589C63.3859 27.2571 63.6185 27.0156 63.9133 26.8345C64.208 26.6534 64.54 26.5167 64.9094 26.4244C65.2822 26.3285 65.6675 26.2592 66.0653 26.2166C66.5447 26.1669 66.9335 26.1225 67.2318 26.0835C67.5301 26.0408 67.7467 25.9769 67.8817 25.8917C68.0202 25.8029 68.0894 25.6662 68.0894 25.4815V25.4496C68.0894 25.0483 67.9704 24.7376 67.7325 24.5174C67.4946 24.2972 67.1519 24.1871 66.7045 24.1871C66.2322 24.1871 65.8575 24.2901 65.5805 24.4961C65.3071 24.7021 65.1224 24.9453 65.0265 25.2259L63.2261 24.9702C63.3682 24.473 63.6025 24.0575 63.9292 23.7237C64.2559 23.3864 64.6555 23.1342 65.1278 22.9673C65.6001 22.7969 66.1221 22.7116 66.6938 22.7116C67.088 22.7116 67.4804 22.7578 67.871 22.8501C68.2616 22.9425 68.6185 23.0952 68.9417 23.3082C69.2648 23.5178 69.5241 23.8036 69.7194 24.1658C69.9182 24.5281 70.0177 24.9808 70.0177 25.5241V31H68.164V29.8761H68.1001C67.9829 30.1033 67.8177 30.3164 67.6047 30.5153C67.3952 30.7106 67.1306 30.8686 66.811 30.9893C66.4949 31.1065 66.1238 31.1651 65.6977 31.1651ZM66.1984 29.7482C66.5855 29.7482 66.9211 29.6719 67.2052 29.5192C67.4893 29.3629 67.7077 29.157 67.8604 28.9013C68.0166 28.6456 68.0947 28.3668 68.0947 28.065V27.1009C68.0344 27.1506 67.9314 27.1967 67.7858 27.2393C67.6437 27.282 67.4839 27.3192 67.3064 27.3512C67.1288 27.3832 66.953 27.4116 66.779 27.4364C66.605 27.4613 66.4541 27.4826 66.3263 27.5004C66.0386 27.5394 65.7812 27.6033 65.5539 27.6921C65.3266 27.7809 65.1473 27.9052 65.0159 28.065C64.8845 28.2212 64.8188 28.4237 64.8188 28.6722C64.8188 29.0273 64.9484 29.2955 65.2077 29.4766C65.4669 29.6577 65.7971 29.7482 66.1984 29.7482ZM73.8849 20.0909V31H71.9566V20.0909H73.8849ZM75.8677 31V22.8182H77.796V31H75.8677ZM76.8372 21.657C76.5318 21.657 76.269 21.5558 76.0488 21.3533C75.8287 21.1474 75.7186 20.9006 75.7186 20.6129C75.7186 20.3217 75.8287 20.0749 76.0488 19.8725C76.269 19.6665 76.5318 19.5636 76.8372 19.5636C77.1461 19.5636 77.4089 19.6665 77.6255 19.8725C77.8457 20.0749 77.9558 20.3217 77.9558 20.6129C77.9558 20.9006 77.8457 21.1474 77.6255 21.3533C77.4089 21.5558 77.1461 21.657 76.8372 21.657ZM85.2574 28.4325L85.252 26.1048H85.561L88.5013 22.8182H90.7545L87.1377 26.8452H86.7382L85.2574 28.4325ZM83.4996 31V20.0909H85.4278V31H83.4996ZM88.6345 31L85.9711 27.2766L87.2709 25.9183L90.941 31H88.6345ZM95.3248 31.1598C94.5045 31.1598 93.7961 30.9893 93.1995 30.6484C92.6064 30.304 92.1501 29.8175 91.8305 29.1889C91.5109 28.5568 91.3511 27.8129 91.3511 26.957C91.3511 26.1154 91.5109 25.3768 91.8305 24.7411C92.1537 24.1019 92.6047 23.6048 93.1835 23.2496C93.7623 22.891 94.4424 22.7116 95.2236 22.7116C95.7279 22.7116 96.2037 22.7933 96.6512 22.9567C97.1022 23.1165 97.4999 23.3651 97.8444 23.7024C98.1924 24.0398 98.4658 24.4695 98.6647 24.9915C98.8635 25.5099 98.963 26.1278 98.963 26.8452V27.4364H92.2567V26.1367H97.1146C97.1111 25.7674 97.0312 25.4389 96.8749 25.1513C96.7187 24.8601 96.5003 24.631 96.2197 24.4641C95.9427 24.2972 95.6196 24.2138 95.2503 24.2138C94.8561 24.2138 94.5099 24.3097 94.2116 24.5014C93.9133 24.6896 93.6807 24.9382 93.5138 25.2472C93.3504 25.5526 93.267 25.8881 93.2634 26.2539V27.3885C93.2634 27.8643 93.3504 28.2727 93.5244 28.6136C93.6984 28.951 93.9417 29.2102 94.2542 29.3913C94.5667 29.5689 94.9324 29.6577 95.3515 29.6577C95.632 29.6577 95.8859 29.6186 96.1132 29.5405C96.3405 29.4588 96.5376 29.3398 96.7045 29.1836C96.8714 29.0273 96.9974 28.8338 97.0827 28.603L98.8831 28.8054C98.7694 29.2812 98.5528 29.6967 98.2332 30.0518C97.9172 30.4034 97.5123 30.6768 97.0187 30.8722C96.5251 31.0639 95.9605 31.1598 95.3248 31.1598ZM113.738 23.7717H111.746C111.689 23.445 111.584 23.1555 111.431 22.9034C111.279 22.6477 111.089 22.4311 110.862 22.2536C110.634 22.076 110.375 21.9428 110.084 21.854C109.796 21.7617 109.485 21.7156 109.152 21.7156C108.559 21.7156 108.033 21.8647 107.575 22.163C107.117 22.4577 106.758 22.891 106.499 23.4627C106.24 24.0309 106.11 24.7251 106.11 25.5455C106.11 26.38 106.24 27.0831 106.499 27.6548C106.762 28.223 107.12 28.6527 107.575 28.9439C108.033 29.2315 108.557 29.3754 109.146 29.3754C109.473 29.3754 109.778 29.3327 110.062 29.2475C110.35 29.1587 110.608 29.0291 110.835 28.8587C111.066 28.6882 111.259 28.4787 111.415 28.2301C111.575 27.9815 111.685 27.6974 111.746 27.3778L113.738 27.3885C113.663 27.907 113.502 28.3935 113.253 28.848C113.008 29.3026 112.687 29.7038 112.289 30.0518C111.891 30.3963 111.426 30.6662 110.893 30.8615C110.361 31.0533 109.77 31.1491 109.12 31.1491C108.161 31.1491 107.305 30.9272 106.552 30.4833C105.799 30.0394 105.206 29.3984 104.773 28.5604C104.34 27.7223 104.123 26.7173 104.123 25.5455C104.123 24.37 104.342 23.3651 104.778 22.5305C105.215 21.6925 105.81 21.0515 106.563 20.6076C107.316 20.1637 108.168 19.9418 109.12 19.9418C109.727 19.9418 110.292 20.027 110.814 20.1974C111.336 20.3679 111.801 20.6183 112.209 20.9485C112.618 21.2752 112.953 21.6765 113.216 22.1523C113.482 22.6246 113.656 23.1644 113.738 23.7717ZM119.031 31.1598C118.232 31.1598 117.54 30.984 116.954 30.6325C116.368 30.2809 115.913 29.7891 115.59 29.157C115.271 28.5249 115.111 27.7862 115.111 26.9411C115.111 26.0959 115.271 25.3555 115.59 24.7198C115.913 24.0842 116.368 23.5906 116.954 23.239C117.54 22.8874 118.232 22.7116 119.031 22.7116C119.83 22.7116 120.523 22.8874 121.109 23.239C121.695 23.5906 122.147 24.0842 122.467 24.7198C122.79 25.3555 122.952 26.0959 122.952 26.9411C122.952 27.7862 122.79 28.5249 122.467 29.157C122.147 29.7891 121.695 30.2809 121.109 30.6325C120.523 30.984 119.83 31.1598 119.031 31.1598ZM119.042 29.6151C119.475 29.6151 119.837 29.4961 120.129 29.2582C120.42 29.0167 120.636 28.6935 120.778 28.2887C120.924 27.8839 120.997 27.4329 120.997 26.9357C120.997 26.435 120.924 25.9822 120.778 25.5774C120.636 25.169 120.42 24.8441 120.129 24.6026C119.837 24.3612 119.475 24.2404 119.042 24.2404C118.598 24.2404 118.229 24.3612 117.934 24.6026C117.643 24.8441 117.424 25.169 117.279 25.5774C117.137 25.9822 117.066 26.435 117.066 26.9357C117.066 27.4329 117.137 27.8839 117.279 28.2887C117.424 28.6935 117.643 29.0167 117.934 29.2582C118.229 29.4961 118.598 29.6151 119.042 29.6151ZM131.618 22.8182L128.705 31H126.574L123.66 22.8182H125.716L127.597 28.896H127.682L129.568 22.8182H131.618ZM136.297 31.1598C135.476 31.1598 134.768 30.9893 134.171 30.6484C133.578 30.304 133.122 29.8175 132.802 29.1889C132.483 28.5568 132.323 27.8129 132.323 26.957C132.323 26.1154 132.483 25.3768 132.802 24.7411C133.125 24.1019 133.576 23.6048 134.155 23.2496C134.734 22.891 135.414 22.7116 136.195 22.7116C136.7 22.7116 137.175 22.7933 137.623 22.9567C138.074 23.1165 138.472 23.3651 138.816 23.7024C139.164 24.0398 139.438 24.4695 139.636 24.9915C139.835 25.5099 139.935 26.1278 139.935 26.8452V27.4364H133.228V26.1367H138.086C138.083 25.7674 138.003 25.4389 137.847 25.1513C137.69 24.8601 137.472 24.631 137.191 24.4641C136.914 24.2972 136.591 24.2138 136.222 24.2138C135.828 24.2138 135.482 24.3097 135.183 24.5014C134.885 24.6896 134.652 24.9382 134.485 25.2472C134.322 25.5526 134.239 25.8881 134.235 26.2539V27.3885C134.235 27.8643 134.322 28.2727 134.496 28.6136C134.67 28.951 134.913 29.2102 135.226 29.3913C135.538 29.5689 135.904 29.6577 136.323 29.6577C136.604 29.6577 136.858 29.6186 137.085 29.5405C137.312 29.4588 137.509 29.3398 137.676 29.1836C137.843 29.0273 137.969 28.8338 138.054 28.603L139.855 28.8054C139.741 29.2812 139.525 29.6967 139.205 30.0518C138.889 30.4034 138.484 30.6768 137.99 30.8722C137.497 31.0639 136.932 31.1598 136.297 31.1598ZM141.566 31V22.8182H143.436V24.1818H143.521C143.67 23.7095 143.926 23.3455 144.288 23.0898C144.654 22.8306 145.071 22.701 145.54 22.701C145.646 22.701 145.765 22.7063 145.897 22.717C146.032 22.7241 146.143 22.7365 146.232 22.7543V24.5281C146.15 24.4996 146.021 24.4748 145.843 24.4535C145.669 24.4286 145.501 24.4162 145.337 24.4162C144.986 24.4162 144.67 24.4925 144.389 24.6452C144.112 24.7944 143.894 25.0021 143.734 25.2685C143.574 25.5348 143.494 25.842 143.494 26.19V31H141.566Z" fill="#739072"/>
</g>
<defs>
<filter id="filter0_d_4_100" x="0" y="0" width="167" height="59" filterUnits="userSpaceOnUse" color-interpolation-filters="sRGB">
<feFlood flood-opacity="0" result="BackgroundImageFix"/>
<feColorMatrix in="SourceAlpha" type="matrix" values="0 0 0 0 0 0 0 0 0 0 0 0 0 0 0 0 0 0 127 0" result="hardAlpha"/>
<feOffset dy="4"/>
<feGaussianBlur stdDeviation="2"/>
<feComposite in2="hardAlpha" operator="out"/>
<feColorMatrix type="matrix" values="0 0 0 0 0 0 0 0 0 0 0 0 0 0 0 0 0 0 0.25 0"/>
<feBlend mode="normal" in2="BackgroundImageFix" result="effect1_dropShadow_4_100"/>
<feBlend mode="normal" in="SourceGraphic" in2="effect1_dropShadow_4_100" result="shape"/>
</filter>
</defs>
</svg>
