<svg width="167" height="59" viewBox="0 0 167 59" fill="none" xmlns="http://www.w3.org/2000/svg">
<g filter="url(#filter0_d_3_23)">
<rect x="4" width="159" height="51" rx="15" fill="#D9D9D9"/>
<path d="M47.5355 20.0909L50.3746 28.6776H50.4865L53.3203 20.0909H55.4936L51.6477 31H49.2081L45.3675 20.0909H47.5355ZM56.8453 31V22.8182H58.7735V31H56.8453ZM57.8147 21.657C57.5093 21.657 57.2465 21.5558 57.0264 21.3533C56.8062 21.1474 56.6961 20.9006 56.6961 20.6129C56.6961 20.3217 56.8062 20.0749 57.0264 19.8725C57.2465 19.6665 57.5093 19.5636 57.8147 19.5636C58.1237 19.5636 58.3865 19.6665 58.6031 19.8725C58.8232 20.0749 58.9333 20.3217 58.9333 20.6129C58.9333 20.9006 58.8232 21.1474 58.6031 21.3533C58.3865 21.5558 58.1237 21.657 57.8147 21.657ZM64.3786 31.1598C63.5582 31.1598 62.8498 30.9893 62.2532 30.6484C61.6602 30.304 61.2038 29.8175 60.8842 29.1889C60.5646 28.5568 60.4048 27.8129 60.4048 26.957C60.4048 26.1154 60.5646 25.3768 60.8842 24.7411C61.2074 24.1019 61.6584 23.6048 62.2372 23.2496C62.8161 22.891 63.4961 22.7116 64.2773 22.7116C64.7816 22.7116 65.2575 22.7933 65.7049 22.9567C66.1559 23.1165 66.5536 23.3651 66.8981 23.7024C67.2461 24.0398 67.5195 24.4695 67.7184 24.9915C67.9173 25.5099 68.0167 26.1278 68.0167 26.8452V27.4364H61.3104V26.1367H66.1683C66.1648 25.7674 66.0849 25.4389 65.9286 25.1513C65.7724 24.8601 65.554 24.631 65.2734 24.4641C64.9964 24.2972 64.6733 24.2138 64.304 24.2138C63.9098 24.2138 63.5636 24.3097 63.2653 24.5014C62.967 24.6896 62.7344 24.9382 62.5675 25.2472C62.4041 25.5526 62.3207 25.8881 62.3171 26.2539V27.3885C62.3171 27.8643 62.4041 28.2727 62.5781 28.6136C62.7521 28.951 62.9954 29.2102 63.3079 29.3913C63.6204 29.5689 63.9862 29.6577 64.4052 29.6577C64.6857 29.6577 64.9396 29.6186 65.1669 29.5405C65.3942 29.4588 65.5913 29.3398 65.7582 29.1836C65.9251 29.0273 66.0511 28.8338 66.1364 28.603L67.9368 28.8054C67.8232 29.2812 67.6065 29.6967 67.2869 30.0518C66.9709 30.4034 66.5661 30.6768 66.0724 30.8722C65.5788 31.0639 65.0142 31.1598 64.3786 31.1598ZM71.2926 31L68.9808 22.8182H70.9464L72.3846 28.571H72.4592L73.9293 22.8182H75.8736L77.3438 28.5391H77.4237L78.8406 22.8182H80.8114L78.4943 31H76.4862L74.9521 25.4709H74.8402L73.3061 31H71.2926ZM85.9637 20.0909H88.382L91.6207 27.9957H91.7485L94.9871 20.0909H97.4055V31H95.5091V23.5053H95.4079L92.393 30.968H90.9761L87.9612 23.4893H87.86V31H85.9637V20.0909ZM103.041 31.1598C102.242 31.1598 101.55 30.984 100.964 30.6325C100.378 30.2809 99.9232 29.7891 99.6001 29.157C99.2805 28.5249 99.1206 27.7862 99.1206 26.9411C99.1206 26.0959 99.2805 25.3555 99.6001 24.7198C99.9232 24.0842 100.378 23.5906 100.964 23.239C101.55 22.8874 102.242 22.7116 103.041 22.7116C103.84 22.7116 104.533 22.8874 105.119 23.239C105.704 23.5906 106.157 24.0842 106.477 24.7198C106.8 25.3555 106.962 26.0959 106.962 26.9411C106.962 27.7862 106.8 28.5249 106.477 29.157C106.157 29.7891 105.704 30.2809 105.119 30.6325C104.533 30.984 103.84 31.1598 103.041 31.1598ZM103.052 29.6151C103.485 29.6151 103.847 29.4961 104.138 29.2582C104.43 29.0167 104.646 28.6935 104.788 28.2887C104.934 27.8839 105.007 27.4329 105.007 26.9357C105.007 26.435 104.934 25.9822 104.788 25.5774C104.646 25.169 104.43 24.8441 104.138 24.6026C103.847 24.3612 103.485 24.2404 103.052 24.2404C102.608 24.2404 102.239 24.3612 101.944 24.6026C101.653 24.8441 101.434 25.169 101.289 25.5774C101.147 25.9822 101.076 26.435 101.076 26.9357C101.076 27.4329 101.147 27.8839 101.289 28.2887C101.434 28.6935 101.653 29.0167 101.944 29.2582C102.239 29.4961 102.608 29.6151 103.052 29.6151ZM108.598 31V22.8182H110.468V24.1818H110.553C110.702 23.7095 110.958 23.3455 111.32 23.0898C111.686 22.8306 112.103 22.701 112.572 22.701C112.678 22.701 112.797 22.7063 112.929 22.717C113.064 22.7241 113.176 22.7365 113.264 22.7543V24.5281C113.183 24.4996 113.053 24.4748 112.876 24.4535C112.702 24.4286 112.533 24.4162 112.369 24.4162C112.018 24.4162 111.702 24.4925 111.421 24.6452C111.144 24.7944 110.926 25.0021 110.766 25.2685C110.606 25.5348 110.526 25.842 110.526 26.19V31H108.598ZM117.831 31.1598C117.01 31.1598 116.302 30.9893 115.705 30.6484C115.112 30.304 114.656 29.8175 114.336 29.1889C114.017 28.5568 113.857 27.8129 113.857 26.957C113.857 26.1154 114.017 25.3768 114.336 24.7411C114.66 24.1019 115.111 23.6048 115.689 23.2496C116.268 22.891 116.948 22.7116 117.729 22.7116C118.234 22.7116 118.71 22.7933 119.157 22.9567C119.608 23.1165 120.006 23.3651 120.35 23.7024C120.698 24.0398 120.972 24.4695 121.171 24.9915C121.369 25.5099 121.469 26.1278 121.469 26.8452V27.4364H114.763V26.1367H119.62C119.617 25.7674 119.537 25.4389 119.381 25.1513C119.225 24.8601 119.006 24.631 118.726 24.4641C118.449 24.2972 118.125 24.2138 117.756 24.2138C117.362 24.2138 117.016 24.3097 116.717 24.5014C116.419 24.6896 116.187 24.9382 116.02 25.2472C115.856 25.5526 115.773 25.8881 115.769 26.2539V27.3885C115.769 27.8643 115.856 28.2727 116.03 28.6136C116.204 28.951 116.448 29.2102 116.76 29.3913C117.073 29.5689 117.438 29.6577 117.857 29.6577C118.138 29.6577 118.392 29.6186 118.619 29.5405C118.846 29.4588 119.043 29.3398 119.21 29.1836C119.377 29.0273 119.503 28.8338 119.589 28.603L121.389 28.8054C121.275 29.2812 121.059 29.6967 120.739 30.0518C120.423 30.4034 120.018 30.6768 119.525 30.8722C119.031 31.0639 118.466 31.1598 117.831 31.1598Z" fill="#739072"/>
</g>
<defs>
<filter id="filter0_d_3_23" x="0" y="0" width="167" height="59" filterUnits="userSpaceOnUse" color-interpolation-filters="sRGB">
<feFlood flood-opacity="0" result="BackgroundImageFix"/>
<feColorMatrix in="SourceAlpha" type="matrix" values="0 0 0 0 0 0 0 0 0 0 0 0 0 0 0 0 0 0 127 0" result="hardAlpha"/>
<feOffset dy="4"/>
<feGaussianBlur stdDeviation="2"/>
<feComposite in2="hardAlpha" operator="out"/>
<feColorMatrix type="matrix" values="0 0 0 0 0 0 0 0 0 0 0 0 0 0 0 0 0 0 0.25 0"/>
<feBlend mode="normal" in2="BackgroundImageFix" result="effect1_dropShadow_3_23"/>
<feBlend mode="normal" in="SourceGraphic" in2="effect1_dropShadow_3_23" result="shape"/>
</filter>
</defs>
</svg>
